<svg xmlns="http://www.w3.org/2000/svg" viewBox="0 0 480 72" fill="none">
  <path d="M0 56 24 16l24 40 24-40 24 40 24-40 24 40 24-40 24 40 24-40 24 40 24-40 24 40 24-40 24 40 24-40 24 40 24-40 24 40 24-40 24 40 24-40 24 40" fill="#233D7A"/>
  <circle cx="24" cy="44" r="6" fill="#F6EDE1"/>
  <circle cx="72" cy="44" r="6" fill="#F6EDE1"/>
  <circle cx="120" cy="44" r="6" fill="#F6EDE1"/>
  <circle cx="168" cy="44" r="6" fill="#F6EDE1"/>
  <circle cx="216" cy="44" r="6" fill="#F6EDE1"/>
  <circle cx="264" cy="44" r="6" fill="#F6EDE1"/>
  <circle cx="312" cy="44" r="6" fill="#F6EDE1"/>
  <circle cx="360" cy="44" r="6" fill="#F6EDE1"/>
  <circle cx="408" cy="44" r="6" fill="#F6EDE1"/>
</svg>
