<svg xmlns="http://www.w3.org/2000/svg" width="1468" height="1244" viewBox="0 0 1468 1244" fill="none">
  <path d="M 755 39 L 372 41 L 370 251 L 553 255 L 553 903 L 540 943 L 507 973 L 478 986 L 285 989 L 275 985 L 266 966 L 267 777 L 37 777 L 36 997 L 129 1112 L 144 1124 L 148 1135 L 174 1161 L 174 1167 L 207 1207 L 601 1207 L 724 1047 L 725 1038 L 760 999 L 761 44 Z" fill="#D5BEA9"/>
  <path d="M 825 40 L 824 1205 L 1388 1207 L 1386 989 L 1028 988 L 1027 346 L 1031 264 L 1388 264 L 1390 41 Z" fill="#D5BEA9"/>
  <path d="M 1091 390 L 1093 835 L 1431 611 Z" fill="#D73C0D"/>
</svg>
